<svg width="1044" height="116" viewBox="0 0 1044 116" fill="none" xmlns="http://www.w3.org/2000/svg">
<path d="M228.81 4.59162C225.839 4.5929 222.961 5.64767 220.665 7.57627C218.369 9.50487 216.798 12.188 216.22 15.1684C215.642 18.1488 216.091 21.2421 217.493 23.9214C218.894 26.6006 221.16 28.7 223.906 29.8618C226.651 31.0236 229.705 31.176 232.547 30.2929C235.39 29.4099 237.845 27.5461 239.495 25.019C241.144 22.492 241.887 19.4581 241.594 16.4343C241.302 13.4105 239.994 10.5837 237.893 8.4357C236.715 7.19503 235.302 6.21404 233.74 5.55294C232.178 4.89184 230.5 4.56466 228.81 4.59162V4.59162ZM253.414 114.256H275.546V0H253.414V114.256ZM343.72 77.5588C343.933 72.6246 342.261 67.799 339.056 64.1043C335.471 60.8001 330.815 58.9716 325.989 58.9716C321.163 58.9716 316.507 60.8001 312.922 64.1043C309.913 67.9062 308.271 72.6495 308.271 77.541C308.271 82.4324 309.913 87.1757 312.922 90.9777C316.507 94.2819 321.163 96.1104 325.989 96.1104C330.815 96.1104 335.471 94.2819 339.056 90.9777C342.264 87.2849 343.937 82.4579 343.72 77.5232V77.5588ZM362.755 61.6839C364.803 66.7083 365.857 72.0977 365.857 77.541C365.857 82.9843 364.803 88.3737 362.755 93.3981C360.777 98.0119 357.886 102.157 354.264 105.571C350.579 109.008 346.261 111.658 341.562 113.366C331.429 117.03 320.375 117.03 310.242 113.366C305.543 111.659 301.224 109.009 297.54 105.571C293.917 102.157 291.026 98.0124 289.049 93.3981C287.001 88.3737 285.947 82.9843 285.947 77.541C285.947 72.0977 287.001 66.7083 289.049 61.6839C291.028 57.0706 293.919 52.9261 297.54 49.5109C301.225 46.0741 305.543 43.424 310.242 41.7159C320.375 38.0517 331.429 38.0517 341.562 41.7159C346.26 43.4249 350.579 46.0749 354.264 49.5109C357.884 52.9268 360.775 57.0711 362.755 61.6839V61.6839ZM420.349 39.0463C416.006 38.925 411.731 40.1671 408.1 42.6057C404.528 45.252 401.638 48.7453 399.678 52.7856H399.4V41.0041H377.267V114.398H399.4V83.7521C399.382 80.4203 399.58 77.091 399.991 73.7859C400.294 71.0401 401.173 68.3935 402.566 66.0265C403.943 63.8195 405.913 62.0649 408.239 60.9722C411.421 59.6212 414.854 59.0014 418.296 59.1569C419.904 59.1567 421.51 59.2876 423.098 59.5484C424.677 59.8138 426.236 60.1945 427.762 60.6874V40.0074C426.622 39.6963 425.457 39.4937 424.282 39.4023C423.006 39.4023 421.73 39.4023 420.454 39.4023L420.349 39.0463ZM217.744 114.256H239.876V40.7549H217.744V114.256ZM23.0724 70.7605H68.3124V49.0127H23.0724V29.0801H71.0616V7.3323H0V114.114H73.6716V92.3657H23.0376L23.0724 70.7605ZM131.718 74.3199C128.895 72.6993 125.86 71.5006 122.705 70.7605L113.692 68.6604C111.302 68.1443 108.97 67.381 106.732 66.3823C105.931 66.0873 105.24 65.5453 104.754 64.8312C104.267 64.117 104.01 63.2661 104.017 62.3958C103.945 61.4314 104.158 60.467 104.63 59.6287C105.102 58.7905 105.81 58.1174 106.662 57.6975C108.354 56.8134 110.226 56.3499 112.126 56.345C114.591 56.2725 117.039 56.7955 119.27 57.8715C121.501 58.9476 123.453 60.5465 124.967 62.5383L138.539 48.7991C135.206 45.1868 130.97 42.577 126.289 41.2531C121.629 39.8751 116.803 39.1683 111.952 39.1531C108.219 39.1497 104.501 39.628 100.885 40.5768C97.4233 41.4478 94.1452 42.9554 91.2108 45.0261C88.3489 47.0136 85.9684 49.6431 84.2508 52.7143C82.457 56.1475 81.5695 59.9996 81.6756 63.8907C81.4784 67.7864 82.4236 71.6537 84.39 74.9961C86.1454 77.6972 88.5395 79.9009 91.35 81.403C94.1902 82.9855 97.2202 84.1821 100.363 84.9624L109.376 87.0623C111.784 87.5748 114.122 88.3877 116.336 89.4826C117.163 89.8378 117.866 90.4378 118.356 91.2054C118.846 91.9729 119.1 92.873 119.086 93.7895C119.113 94.7412 118.82 95.6737 118.256 96.4315C117.693 97.1892 116.892 97.7265 115.988 97.9539C113.75 98.7411 111.395 99.1265 109.028 99.093C105.987 99.164 102.975 98.4671 100.259 97.0641C97.5616 95.5814 95.1922 93.5458 93.2988 91.0844L80.04 105.998C83.6066 109.73 88.0906 112.411 93.0204 113.758C97.9677 115.198 103.084 115.94 108.228 115.964C112.14 115.955 116.043 115.574 119.886 114.825C123.628 114.15 127.229 112.826 130.535 110.91C133.646 109.088 136.302 106.554 138.295 103.507C140.43 100.002 141.485 95.922 141.323 91.7963C141.507 87.8972 140.55 84.0305 138.574 80.6911C136.798 77.962 134.412 75.7049 131.614 74.1063L131.718 74.3199ZM197.351 74.3199C194.528 72.6993 191.493 71.5006 188.338 70.7605L179.324 68.6604C176.935 68.1446 174.603 67.3812 172.364 66.3823C171.564 66.0873 170.873 65.5453 170.387 64.8312C169.9 64.117 169.643 63.2661 169.65 62.3958C169.577 61.4314 169.791 60.467 170.263 59.6287C170.735 58.7905 171.443 58.1174 172.295 57.6975C173.987 56.8134 175.858 56.3499 177.758 56.345C180.224 56.2725 182.672 56.7955 184.903 57.8715C187.134 58.9476 189.086 60.5465 190.6 62.5383L204.172 48.7991C200.839 45.1868 196.602 42.577 191.922 41.2531C187.261 39.8751 182.436 39.1683 177.584 39.1531C173.852 39.1497 170.134 39.628 166.518 40.5768C163.056 41.4478 159.778 42.9554 156.844 45.0261C153.982 47.0136 151.601 49.6431 149.884 52.7143C148.09 56.1475 147.202 59.9996 147.308 63.8907C147.111 67.7864 148.056 71.6537 150.023 74.9961C151.778 77.6972 154.172 79.9009 156.983 81.403C159.823 82.9855 162.853 84.1821 165.996 84.9624L175.009 87.0623C177.417 87.5748 179.755 88.3877 181.969 89.4826C182.789 89.8433 183.485 90.4456 183.968 91.2128C184.452 91.9799 184.701 92.877 184.684 93.7895C184.711 94.7412 184.418 95.6737 183.854 96.4315C183.291 97.1892 182.49 97.7265 181.586 97.9539C179.348 98.7418 176.993 99.1272 174.626 99.093C171.585 99.164 168.573 98.4671 165.857 97.0641C163.16 95.5814 160.79 93.5458 158.897 91.0844L145.464 106.354C149.031 110.087 153.515 112.767 158.444 114.114C163.392 115.554 168.508 116.297 173.652 116.32C177.564 116.311 181.467 115.93 185.31 115.181C189.052 114.506 192.653 113.182 195.959 111.266C199.07 109.444 201.726 106.91 203.719 103.863C205.855 100.358 206.909 96.2779 206.747 92.1521C206.931 88.253 205.974 84.3863 203.998 81.0469C202.222 78.3179 199.836 76.0607 197.038 74.4622L197.351 74.3199ZM728.086 77.63C728.299 72.6959 726.627 67.8703 723.422 64.1755C719.837 60.8714 715.181 59.0428 710.355 59.0428C705.529 59.0428 700.873 60.8714 697.288 64.1755C694.279 67.9775 692.637 72.7208 692.637 77.6122C692.637 82.5037 694.279 87.2468 697.288 91.0487C700.873 94.3529 705.529 96.1814 710.355 96.1814C715.181 96.1814 719.837 94.3529 723.422 91.0487C726.63 87.3559 728.303 82.5291 728.086 77.5944V77.63ZM747.121 61.7552C749.169 66.7795 750.223 72.1689 750.223 77.6122C750.223 83.0555 749.169 88.4447 747.121 93.4691C745.143 98.0829 742.252 102.228 738.63 105.642C734.945 109.078 730.626 111.728 725.928 113.437C715.795 117.101 704.741 117.101 694.608 113.437C689.909 111.729 685.591 109.079 681.906 105.642C678.284 102.228 675.392 98.0834 673.415 93.4691C671.367 88.4447 670.313 83.0555 670.313 77.6122C670.313 72.1689 671.367 66.7795 673.415 61.7552C675.428 57.0748 678.38 52.8791 682.08 49.4398C685.768 46.0165 690.086 43.3788 694.782 41.6803C704.915 38.0162 715.969 38.0162 726.102 41.6803C730.797 43.3796 735.115 46.0173 738.804 49.4398C742.424 52.8556 745.315 57.0001 747.295 61.6129L747.121 61.7552ZM841.847 19.0427H819.679V40.7905H789.195V19.0427H767.062V40.7905H752.898V60.6161H767.062V93.7895C766.957 97.3275 767.635 100.844 769.045 104.076C770.299 106.803 772.201 109.165 774.578 110.946C777.099 112.834 779.962 114.189 783 114.932C786.418 115.774 789.925 116.181 793.44 116.143C796.056 116.136 798.67 115.982 801.27 115.68C803.895 115.386 806.476 114.777 808.961 113.864V94.9998C807.716 96.0165 806.2 96.6244 804.611 96.7439C803.066 96.9715 801.508 97.1022 799.948 97.1353C798.01 97.2109 796.077 96.8714 794.275 96.1386C792.957 95.5825 791.847 94.6098 791.108 93.3624C790.383 92.035 789.933 90.5688 789.786 89.0555C789.584 87.2239 789.491 85.3816 789.508 83.5385V60.7941H819.992V93.9675C819.888 97.5054 820.566 101.022 821.976 104.254C823.229 106.981 825.132 109.343 827.509 111.124C829.999 112.944 832.813 114.25 835.792 114.968C839.209 115.81 842.716 116.216 846.232 116.178C848.848 116.172 851.462 116.017 854.062 115.715C856.686 115.422 859.268 114.813 861.752 113.9V95.0352C860.509 96.0539 858.992 96.6623 857.402 96.7795C855.857 97.0071 854.3 97.1378 852.739 97.171C850.801 97.2466 848.869 96.907 847.067 96.1742C845.749 95.6181 844.639 94.6454 843.9 93.3981C843.175 92.0706 842.724 90.6044 842.578 89.0911C842.376 87.2596 842.283 85.4172 842.299 83.5741V60.8297H861.787V41.0041H842.299L841.847 19.0427ZM945.064 58.9077C947.271 58.9026 949.446 59.4527 951.397 60.5095C953.224 61.4339 954.802 62.8028 955.991 64.4959L970.607 48.7991C967.25 45.2369 963.057 42.6143 958.427 41.182C954.104 39.7744 949.6 39.0308 945.064 38.9752C939.752 38.9337 934.475 39.8495 929.473 41.6803C924.774 43.3885 920.456 46.0385 916.771 49.4753C913.162 52.8593 910.272 56.9666 908.28 61.5416C906.233 66.566 905.179 71.9554 905.179 77.3987C905.179 82.842 906.233 88.2312 908.28 93.2555C910.257 97.8699 913.149 102.015 916.771 105.429C920.455 108.866 924.774 111.516 929.473 113.224C934.475 115.055 939.752 115.97 945.064 115.929C949.6 115.874 954.104 115.13 958.427 113.722C963.058 112.293 967.252 109.67 970.607 106.105L955.991 90.4081C954.667 91.9483 953.117 93.2693 951.397 94.3235C949.48 95.4735 947.286 96.0528 945.064 95.9963C942.651 96.1456 940.236 95.7654 937.979 94.8814C935.722 93.9974 933.676 92.6299 931.979 90.8708C928.97 87.0688 927.328 82.3258 927.328 77.4343C927.328 72.5429 928.97 67.7996 931.979 63.9976C933.676 62.2385 935.722 60.871 937.979 59.987C940.236 59.103 942.651 58.7228 945.064 58.8721V58.9077ZM883.92 4.59162C880.949 4.5929 878.071 5.64767 875.775 7.57627C873.479 9.50487 871.909 12.188 871.33 15.1684C870.752 18.1488 871.201 21.2421 872.603 23.9214C874.004 26.6006 876.271 28.7 879.016 29.8618C881.761 31.0236 884.815 31.176 887.657 30.2929C890.5 29.4099 892.955 27.5461 894.605 25.019C896.255 22.492 896.996 19.4581 896.704 16.4343C896.412 13.4105 895.104 10.5837 893.003 8.4357C891.825 7.19503 890.412 6.21404 888.85 5.55294C887.288 4.89184 885.61 4.56466 883.92 4.59162V4.59162ZM872.854 114.256H894.986V40.7549H872.784L872.854 114.256ZM671.014 40.8617H646.34L634.091 60.7941L621.389 40.8617H595.08L618.988 74.9961L590.626 114.149H616.482L633.325 89.6962L648.985 114.149H675.12L647.524 74.9961L671.014 40.8617ZM1023.75 82.0793H1018.28C1016.61 82.0793 1014.52 82.1504 1012.02 82.2928C1009.57 82.4335 1007.14 82.8634 1004.78 83.5741C1002.61 84.1969 1000.6 85.276 998.865 86.742C998.05 87.4684 997.408 88.3744 996.986 89.3918C996.564 90.4092 996.373 91.5112 996.428 92.6149C996.379 93.8589 996.68 95.0911 997.298 96.1643C997.915 97.2374 998.821 98.106 999.908 98.6659C1002.02 99.9208 1004.42 100.595 1006.87 100.623C1008.99 100.634 1011.1 100.334 1013.13 99.7336C1015.05 99.1794 1016.87 98.3143 1018.53 97.171C1020.08 96.0773 1021.37 94.627 1022.28 92.9353C1023.25 91.075 1023.73 88.9904 1023.68 86.8843L1023.75 82.0793ZM1044 76.8469V114.149H1023.61V104.966H1023.33C1021.01 108.774 1017.58 111.738 1013.52 113.437C1009.42 115.148 1005.03 116.019 1000.6 116C997.329 116.014 994.069 115.535 990.93 114.576C987.961 113.685 985.186 112.223 982.752 110.269C980.39 108.352 978.476 105.92 977.149 103.151C975.722 100.086 975.019 96.7207 975.096 93.3268C974.991 89.6284 975.78 85.9607 977.393 82.6487C978.896 79.8209 981.016 77.385 983.587 75.5299C986.313 73.5616 989.334 72.059 992.531 71.0807C995.942 70.0074 999.434 69.2218 1002.97 68.7316C1006.55 68.2359 1010.15 67.9389 1013.76 67.8418C1017.35 67.8418 1020.67 67.8418 1023.71 67.8418C1023.78 66.0215 1023.44 64.2095 1022.71 62.5481C1021.98 60.8868 1020.88 59.4214 1019.5 58.267C1016.71 55.9018 1013.17 54.639 1009.55 54.7076C1006.09 54.6687 1002.68 55.4741 999.595 57.0568C996.545 58.6563 993.818 60.8299 991.556 63.4636L979.62 50.8635C983.789 46.918 988.721 43.9108 994.097 42.0362C999.6 40.0715 1005.39 39.0727 1011.22 39.082C1016.66 38.9108 1022.08 39.7552 1027.23 41.5736C1031.16 43.0486 1034.64 45.5815 1037.28 48.9059C1039.91 52.3842 1041.71 56.443 1042.54 60.7587C1043.58 66.1017 1044.07 71.5417 1044 76.9894V76.8469ZM460.578 7.22553H437.54V114.007H503.243V92.259H460.578V7.22553ZM560.106 40.7549H582.239V114.149H560.976V104.254H560.698C559.837 105.771 558.822 107.191 557.67 108.49C556.363 109.966 554.851 111.238 553.181 112.263C551.283 113.423 549.248 114.332 547.126 114.968C544.731 115.694 542.245 116.054 539.748 116.036C535.065 116.223 530.4 115.323 526.106 113.402C522.782 111.788 519.971 109.246 517.998 106.069C515.994 102.7 514.691 98.9433 514.17 95.0352C513.502 90.4877 513.176 85.8946 513.196 81.2961V40.7549H535.328V76.7046C535.328 78.8165 535.398 81.0113 535.537 83.2893C535.658 85.4349 536.104 87.5483 536.86 89.5539C537.567 91.6193 538.934 93.3812 540.739 94.5562C542.544 95.7312 544.683 96.251 546.812 96.032C549.23 96.1372 551.632 95.5845 553.772 94.4302C555.494 93.4406 556.906 91.9719 557.844 90.1945C558.81 88.3331 559.436 86.3065 559.688 84.2148C560.001 81.8555 560.152 79.4768 560.141 77.0961L560.106 40.7549Z" fill="#FFFBF9"/>
</svg>
